<svg id="Layer_5" enable-background="new 0 0 64 64" height="512" viewBox="0 0 64 64" width="512" xmlns="http://www.w3.org/2000/svg"><g><g><path d="m45 22h-2c0-3.309-2.691-6-6-6v-2c4.411 0 8 3.589 8 8z"/></g><g><path d="m61.568 40.234-11.43-10.613-1.361 1.466 11.43 10.612c.504.468.793 1.132.793 1.819 0 1.369-1.113 2.482-2.481 2.482-.688 0-1.35-.288-1.816-.79l-10.617-11.433-1.465 1.361.013.015-1.698.352c.044.211.064.363.064.495 0 4.125-9.486 7-18 7s-18-2.875-18-7c0-3.051 6.236-6.582 16.312-6.964l-.076-1.999c-1.534.058-2.998.195-4.396.388.099-.262.16-.543.16-.839v-3.586h3v-2h-5v5.586c0 .338-.469.531-.707.293l-5.879-5.879h-6.414c-.552 0-1-.449-1-1v-16c0-.551.448-1 1-1h24c.552 0 1 .449 1 1v4.738h2v-4.738c0-1.654-1.346-3-3-3h-24c-1.654 0-3 1.346-3 3v16c0 1.654 1.346 3 3 3h5.586l5.211 5.212c-5.965 1.539-9.797 4.405-9.797 7.788v18c0 5.047 8.785 9 20 9s20-3.953 20-9v-18c0-.174-.014-.339-.034-.49l10.271 11.061c.844.908 2.039 1.429 3.282 1.429 2.47 0 4.481-2.011 4.481-4.482 0-1.242-.521-2.438-1.432-3.284zm-36.568 20.766c-8.514 0-18-2.875-18-7v-2.036c3.206 3.004 9.97 5.036 18 5.036s14.794-2.032 18-5.036v2.036c0 4.125-9.486 7-18 7zm0-6c-8.514 0-18-2.875-18-7v-2.036c3.206 3.004 9.97 5.036 18 5.036s14.794-2.032 18-5.036v2.036c0 4.125-9.486 7-18 7zm0-6c-8.514 0-18-2.875-18-7v-2.036c3.206 3.004 9.97 5.036 18 5.036s14.794-2.032 18-5.036v2.036c0 4.125-9.486 7-18 7z"/><path d="m5 9v10h18v-1-1-8h2v2.802h2v-4.802h-6v10h-2v-12h-6v12h-2v-8zm10-2h2v10h-2zm-6 10h-2v-6h2z"/><path d="m11.492 36c1.56-1.089 5.996-3 13.508-3 .188 0 .368.005.548.009l.29.007.037-2-.276-.006c-.198-.005-.394-.01-.599-.01-8.844 0-14.65 2.665-15.79 4.465l-.339.535.339.535c1.14 1.8 6.946 4.465 15.79 4.465 7.21 0 12.269-1.721 14.598-3.331l-1.137-1.646c-1.986 1.374-6.703 2.977-13.461 2.977-7.512 0-11.948-1.911-13.508-3z"/></g><g><path d="m37 38c-8.822 0-16-7.178-16-16s7.178-16 16-16 16 7.178 16 16-7.178 16-16 16zm0-27c-6.066 0-11 4.935-11 11s4.934 11 11 11 11-4.934 11-11-4.935-11-11-11z" fill="#f0bc5e"/></g><g><path d="m37 34c-6.617 0-12-5.383-12-12s5.383-12 12-12 12 5.383 12 12-5.383 12-12 12zm0-22c-5.514 0-10 4.486-10 10s4.486 10 10 10 10-4.486 10-10-4.486-10-10-10z"/></g></g></svg>