<?xml version="1.0" encoding="iso-8859-1"?>
<!-- Generator: Adobe Illustrator 19.0.0, SVG Export Plug-In . SVG Version: 6.00 Build 0)  -->
<svg version="1.1" id="Layer_1" xmlns="http://www.w3.org/2000/svg" xmlns:xlink="http://www.w3.org/1999/xlink" x="0px" y="0px"
	 viewBox="0 0 392.533 392.533" style="enable-background:new 0 0 392.533 392.533;" xml:space="preserve">
<path style="fill:#FFFFFF;" d="M22.044,359.822c0,6.012,4.848,10.925,10.925,10.925h326.723c6.012,0,10.925-4.848,10.925-10.925
	V114.747H22.044V359.822z"/>
<path style="fill:#56ACE0;" d="M370.489,32.711c0-6.012-4.848-10.925-10.925-10.925H32.905c-6.012,0-10.925,4.848-10.925,10.925
	v59.798h348.509V32.711z"/>
<path style="fill:#FFC10D;" d="M43.83,136.533v14.869h47.709c6.012,0,10.925,4.848,10.925,10.925s-4.848,10.925-10.925,10.925H43.83
	v22.949h15.063c6.012,0,10.925,4.848,10.925,10.925c0,6.077-4.848,10.925-10.925,10.925H43.83v131.232h304.937V136.598H43.83
	V136.533z"/>
<g>
	<polygon style="fill:#194F82;" points="316.574,282.182 304.291,315.604 293.43,282.182 279.014,282.182 268.024,315.604 
		255.935,282.182 241.519,282.182 241.002,282.182 226.586,282.182 214.368,315.604 203.442,282.182 189.091,282.182 
		178.101,315.604 165.947,282.182 151.531,282.182 151.014,282.182 136.598,282.182 124.315,315.604 113.519,282.182 
		99.103,282.182 88.178,315.604 75.96,282.182 61.026,282.182 82.618,340.299 92.897,340.299 106.214,299.895 119.79,340.299 
		130.069,340.299 151.273,282.958 172.541,340.299 182.82,340.299 196.202,299.895 209.713,340.299 219.992,340.299 
		241.261,282.958 262.465,340.299 272.743,340.299 286.19,299.895 299.636,340.299 309.915,340.299 331.507,282.182 	"/>
	<path style="fill:#194F82;" d="M69.818,46.416H52.945c-6.012,0-10.925,4.848-10.925,10.925s4.848,10.925,10.925,10.925h16.873
		c6.012,0,10.925-4.848,10.99-10.925C80.743,51.329,75.895,46.416,69.818,46.416z"/>
	<path style="fill:#194F82;" d="M135.176,46.416h-16.937c-6.012,0-10.925,4.848-10.925,10.925s4.848,10.925,10.925,10.925h16.937
		c6.012,0,10.925-4.848,10.925-10.925S141.188,46.416,135.176,46.416z"/>
	<path style="fill:#194F82;" d="M331.119,46.416H183.531c-6.012,0-10.925,4.848-10.925,10.925s4.848,10.925,10.925,10.925h147.588
		c6.012,0,10.925-4.848,10.925-10.925S337.131,46.416,331.119,46.416z"/>
	<path style="fill:#194F82;" d="M359.628,0H32.905C14.869,0,0.194,14.675,0.194,32.711v327.111
		c0,18.036,14.675,32.711,32.711,32.711h326.723c18.036,0,32.711-14.675,32.711-32.711V32.711C392.339,14.675,377.6,0,359.628,0z
		 M370.489,359.822c0,6.012-4.848,10.925-10.925,10.925H32.905c-6.012,0-10.925-4.848-10.925-10.925V114.747h348.509V359.822z
		 M370.489,92.38H22.044V32.711c0-6.012,4.848-10.925,10.925-10.925h326.723c6.012,0,10.925,4.848,10.925,10.925V92.38H370.489z"/>
</g>
<g>
	<path style="fill:#FFFFFF;" d="M134.465,191.935c7.111,1.681,14.222,3.168,21.333,4.267c2.327-8.857,5.172-17.067,8.663-24.113
		C153.083,176.549,142.869,183.337,134.465,191.935z"/>
	<path style="fill:#FFFFFF;" d="M240.679,215.596c1.422,8.857,2.263,18.166,2.651,27.539h39.499
		c-1.422-12.347-5.43-23.984-11.507-34.263C261.107,211.717,250.893,213.98,240.679,215.596z"/>
	<path style="fill:#FFFFFF;" d="M171.572,218.053c-1.228,7.628-2.069,16.097-2.457,25.018h54.368
		c-0.388-8.986-1.228-17.39-2.457-25.083c-8.275,0.776-16.485,1.164-24.76,1.164C187.992,219.216,179.717,218.828,171.572,218.053z"
		/>
	<path style="fill:#FFFFFF;" d="M151.855,215.661c-10.279-1.616-20.493-3.879-30.578-6.659
		c-6.012,10.279-10.02,21.786-11.442,34.133h39.499C149.592,233.826,150.497,224.517,151.855,215.661z"/>
	<path style="fill:#FFFFFF;" d="M175.774,198.529c13.705,1.099,27.345,1.099,41.051,0c-5.818-20.493-14.093-32.517-20.493-32.517
		C189.931,166.012,181.592,178.036,175.774,198.529z"/>
	<path style="fill:#FFFFFF;" d="M258.069,191.935c-8.404-8.598-18.618-15.386-30.061-19.846c3.491,7.046,6.335,15.192,8.663,24.113
		C243.846,195.038,251.022,193.616,258.069,191.935z"/>
</g>
<path style="fill:#194F82;" d="M196.267,146.166c-58.893,0-106.796,47.903-106.796,106.796c0,5.495,4.396,9.891,9.891,9.891h193.81
	c5.495,0,9.891-4.396,9.891-9.891C303.063,194.198,255.16,146.166,196.267,146.166z M121.212,209.002
	c10.149,2.78,20.299,5.042,30.578,6.659c-1.422,8.857-2.263,18.166-2.65,27.539H109.64
	C111.192,230.788,115.2,219.216,121.212,209.002z M134.465,191.935c8.404-8.598,18.618-15.386,29.996-19.846
	c-3.491,7.046-6.335,15.192-8.663,24.113C148.687,195.038,141.511,193.616,134.465,191.935z M223.483,243.2h-54.368
	c0.388-8.986,1.228-17.39,2.457-25.018c8.275,0.711,16.485,1.164,24.695,1.164c8.275,0,16.549-0.388,24.76-1.164
	C222.255,225.81,223.095,234.149,223.483,243.2z M216.76,198.529c-13.705,1.099-27.345,1.099-41.051,0
	c5.818-20.493,14.093-32.517,20.493-32.517C202.602,166.012,210.941,178.036,216.76,198.529z M258.069,191.935
	c-7.111,1.681-14.222,3.103-21.398,4.267c-2.327-8.857-5.172-17.067-8.663-24.113C239.45,176.549,249.665,183.337,258.069,191.935z
	 M243.265,243.2c-0.388-9.374-1.228-18.618-2.651-27.539c10.279-1.616,20.493-3.879,30.578-6.659
	c6.012,10.279,10.02,21.85,11.507,34.263H243.2V243.2H243.265z"/>
<g>
</g>
<g>
</g>
<g>
</g>
<g>
</g>
<g>
</g>
<g>
</g>
<g>
</g>
<g>
</g>
<g>
</g>
<g>
</g>
<g>
</g>
<g>
</g>
<g>
</g>
<g>
</g>
<g>
</g>
</svg>
